<svg width="26" height="26" viewBox="0 0 26 26" fill="#AAAAAA" xmlns="http://www.w3.org/2000/svg"><path d="M12.8147 12.5243C14.5353 12.5243 16.0251 11.9072 17.2426 10.6897C18.4598 9.47229 19.0771 7.98277 19.0771 6.26196C19.0771 4.54175 18.46 3.05203 17.2424 1.83427C16.0249 0.617111 14.5351 0 12.8147 0C11.0939 0 9.6044 0.617111 8.38704 1.83447C7.16968 3.05183 6.55237 4.54155 6.55237 6.26196C6.55237 7.98277 7.16968 9.47249 8.38704 10.6898C9.6048 11.907 11.0945 12.5243 12.8147 12.5243ZM9.46455 2.91179C10.3987 1.97769 11.4944 1.52364 12.8147 1.52364C14.1348 1.52364 15.2308 1.97769 16.1651 2.91179C17.0992 3.84608 17.5535 4.94205 17.5535 6.26196C17.5535 7.58228 17.0992 8.67804 16.1651 9.61234C15.2308 10.5466 14.1348 11.0007 12.8147 11.0007C11.4948 11.0007 10.399 10.5464 9.46455 9.61234C8.53026 8.67824 8.076 7.58228 8.076 6.26196C8.076 4.94205 8.53026 3.84608 9.46455 2.91179Z"></path><path d="M23.7722 19.9928C23.7371 19.4862 23.666 18.9335 23.5615 18.3499C23.456 17.762 23.3201 17.2062 23.1574 16.6982C22.9892 16.1731 22.7609 15.6546 22.4782 15.1577C22.1853 14.6419 21.8409 14.1928 21.4545 13.8233C21.0504 13.4366 20.5557 13.1258 19.9836 12.8991C19.4135 12.6735 18.7817 12.5593 18.1059 12.5593C17.8405 12.5593 17.5838 12.6682 17.0881 12.9909C16.783 13.1899 16.4261 13.42 16.0278 13.6745C15.6872 13.8915 15.2258 14.0948 14.6559 14.2789C14.0999 14.4588 13.5354 14.5501 12.978 14.5501C12.421 14.5501 11.8564 14.4588 11.3 14.2789C10.7307 14.095 10.2691 13.8917 9.92912 13.6747C9.53458 13.4226 9.17752 13.1925 8.86787 12.9907C8.37256 12.668 8.11588 12.5591 7.85046 12.5591C7.17444 12.5591 6.54285 12.6735 5.97295 12.8993C5.40126 13.1256 4.90634 13.4364 4.50188 13.8235C4.11546 14.1932 3.7711 14.6421 3.47832 15.1577C3.19604 15.6546 2.96753 16.1729 2.79932 16.6983C2.63686 17.2064 2.50098 17.762 2.39545 18.3499C2.29071 18.9327 2.21989 19.4856 2.18478 19.9934C2.15027 20.4899 2.13281 21.0066 2.13281 21.5287C2.13281 22.8859 2.56425 23.9847 3.41504 24.795C4.25531 25.5946 5.36694 26 6.71919 26H19.2384C20.5902 26 21.7018 25.5946 22.5423 24.795C23.3933 23.9853 23.8247 22.8861 23.8247 21.5285C23.8245 21.0046 23.8069 20.4879 23.7722 19.9928ZM21.4918 23.6911C20.9366 24.2195 20.1994 24.4764 19.2382 24.4764H6.71919C5.75772 24.4764 5.0206 24.2195 4.46558 23.6913C3.92107 23.173 3.65645 22.4654 3.65645 21.5287C3.65645 21.0415 3.67252 20.5605 3.70465 20.0987C3.73599 19.6456 3.80006 19.1479 3.89508 18.6191C3.98891 18.0968 4.10832 17.6067 4.25035 17.1629C4.38663 16.7374 4.57249 16.3161 4.80299 15.9102C5.02298 15.5234 5.27609 15.1916 5.55539 14.9242C5.81664 14.674 6.14592 14.4693 6.53392 14.3158C6.89276 14.1738 7.29604 14.096 7.73383 14.0843C7.78719 14.1127 7.8822 14.1668 8.03613 14.2672C8.34935 14.4713 8.71037 14.7042 9.10948 14.9591C9.55937 15.2459 10.139 15.505 10.8315 15.7285C11.5394 15.9575 12.2615 16.0737 12.9782 16.0737C13.6949 16.0737 14.4171 15.9575 15.1247 15.7287C15.8178 15.5048 16.3972 15.2459 16.8477 14.9587C17.2561 14.6976 17.607 14.4715 17.9202 14.2672C18.0742 14.167 18.1692 14.1127 18.2225 14.0843C18.6605 14.096 19.0638 14.1738 19.4228 14.3158C19.8106 14.4693 20.1399 14.6742 20.4012 14.9242C20.6805 15.1914 20.9336 15.5232 21.1536 15.9104C21.3843 16.3161 21.5703 16.7376 21.7064 17.1627C21.8486 17.6071 21.9682 18.097 22.0619 18.6189C22.1567 19.1487 22.221 19.6466 22.2523 20.0989V20.0993C22.2846 20.5593 22.3009 21.0401 22.3011 21.5287C22.3009 22.4656 22.0363 23.173 21.4918 23.6911Z"></path></svg>