<svg width="20" height="20" viewBox="0 0 20 20" fill="#387FEA" xmlns="http://www.w3.org/2000/svg"><path d="M4.44395 10.7804L13.3442 19.6805C13.5501 19.8865 13.8249 20 14.1179 20C14.4109 20 14.6857 19.8865 14.8915 19.6805L15.547 19.0252C15.9735 18.5982 15.9735 17.9042 15.547 17.4779L8.07319 10.0041L15.5552 2.52209C15.7611 2.31608 15.8748 2.04145 15.8748 1.7486C15.8748 1.45543 15.7611 1.1808 15.5552 0.974625L14.8998 0.319508C14.6938 0.113495 14.4192 0 14.1262 0C13.8331 0 13.5584 0.113495 13.3525 0.319508L4.44395 9.22773C4.23761 9.43439 4.12428 9.71033 4.12493 10.0037C4.12428 10.2981 4.23761 10.5739 4.44395 10.7804Z"></path></svg>