<svg width="24" height="22" viewBox="0 0 24 24" fill="none" xmlns="http://www.w3.org/2000/svg"><g clip-path="url(#clip0)"><path d="M13.4998 4.18C13.2238 4.18 12.9998 3.956 12.9998 3.68V2C12.9998 1.449 12.5508 1 11.9998 1C11.4488 1 10.9998 1.449 10.9998 2V3.68C10.9998 3.956 10.7758 4.18 10.4998 4.18C10.2238 4.18 9.99976 3.957 9.99976 3.68V2C9.99976 0.897 10.8968 0 11.9998 0C13.1028 0 13.9998 0.897 13.9998 2V3.68C13.9998 3.957 13.7758 4.18 13.4998 4.18Z" fill="#387FEA"></path><path d="M11.9998 24.0002C10.0698 24.0002 8.49976 22.4302 8.49976 20.5002C8.49976 20.2242 8.72376 20.0002 8.99976 20.0002C9.27576 20.0002 9.49976 20.2242 9.49976 20.5002C9.49976 21.8782 10.6218 23.0002 11.9998 23.0002C13.3778 23.0002 14.4998 21.8782 14.4998 20.5002C14.4998 20.2242 14.7238 20.0002 14.9998 20.0002C15.2758 20.0002 15.4998 20.2242 15.4998 20.5002C15.4998 22.4302 13.9298 24.0002 11.9998 24.0002Z" fill="#387FEA"></path><path d="M20.4995 21H3.49951C2.67251 21 1.99951 20.327 1.99951 19.5C1.99951 19.061 2.19051 18.646 2.52451 18.36C4.10051 17.028 4.99951 15.09 4.99951 13.038V10C4.99951 6.14 8.13951 3 11.9995 3C15.8595 3 18.9995 6.14 18.9995 10V13.038C18.9995 15.091 19.8985 17.028 21.4665 18.353C21.8085 18.646 21.9995 19.061 21.9995 19.5C21.9995 20.327 21.3275 21 20.4995 21ZM11.9995 4C8.69051 4 5.99951 6.691 5.99951 10V13.038C5.99951 15.386 4.97151 17.601 3.17851 19.117C3.06351 19.215 2.99951 19.354 2.99951 19.5C2.99951 19.776 3.22351 20 3.49951 20H20.4995C20.7755 20 20.9995 19.776 20.9995 19.5C20.9995 19.354 20.9355 19.215 20.8245 19.12C19.0285 17.601 17.9995 15.385 17.9995 13.038V10C17.9995 6.691 15.3085 4 11.9995 4Z" fill="#387FEA"></path></g><defs><clipPath id="clip0"><rect width="24" height="24" fill="white"></rect></clipPath></defs></svg>