<svg width="24" height="24" viewBox="0 0 24 24" fill="#AAAAAA" xmlns="http://www.w3.org/2000/svg"><path d="M12.2472 0C7.69959 0 4 3.69958 4 8.24717C4 9.74428 4.67142 11.3544 4.69955 11.4223C4.91641 11.9371 5.34429 12.7365 5.65283 13.2052L11.3075 21.773C11.5389 22.1243 11.8814 22.3256 12.2472 22.3256C12.613 22.3256 12.9555 22.1243 13.1869 21.7735L18.842 13.2052C19.151 12.7365 19.5784 11.9371 19.7953 11.4223C19.8234 11.3549 20.4943 9.74476 20.4943 8.24717C20.4943 3.69958 16.7948 0 12.2472 0ZM18.9007 11.0459C18.7071 11.5072 18.3088 12.2509 18.0318 12.6711L12.3767 21.2394C12.2651 21.4087 12.2297 21.4087 12.1181 21.2394L6.46299 12.6711C6.18599 12.2509 5.7877 11.5067 5.59413 11.0454C5.58588 11.0255 4.97026 9.54343 4.97026 8.24717C4.97026 4.23468 8.23468 0.970256 12.2472 0.970256C16.2597 0.970256 19.5241 4.23468 19.5241 8.24717C19.5241 9.54537 18.907 11.0313 18.9007 11.0459Z"></path><path d="M12.2474 3.88147C9.83969 3.88147 7.88123 5.84042 7.88123 8.24762C7.88123 10.6548 9.83969 12.6138 12.2474 12.6138C14.6551 12.6138 16.6135 10.6548 16.6135 8.24762C16.6135 5.84042 14.6551 3.88147 12.2474 3.88147ZM12.2474 11.6435C10.3753 11.6435 8.85148 10.1202 8.85148 8.24762C8.85148 6.37503 10.3753 4.85173 12.2474 4.85173C14.1195 4.85173 15.6433 6.37503 15.6433 8.24762C15.6433 10.1202 14.1195 11.6435 12.2474 11.6435Z"></path><rect x="6.86047" y="22.8837" width="11.1628" height="1.11628" rx="0.55814"></rect></svg>