<svg width="26" height="26" viewBox="0 0 26 26" fill="#AAAAAA" xmlns="http://www.w3.org/2000/svg"><path d="M13 0C5.83193 0 0 5.83193 0 13C0 20.168 5.83193 25.9999 13 25.9999C20.168 25.9999 25.9999 20.168 25.9999 13C25.9999 5.83193 20.1681 0 13 0ZM13 23.7391C7.07876 23.7391 2.26083 18.9212 2.26083 13C2.26083 7.07876 7.07876 2.26089 13 2.26089C18.9212 2.26089 23.7391 7.07876 23.7391 13C23.7391 18.9212 18.9212 23.7391 13 23.7391Z"></path><path d="M19.0526 6.94889C18.8887 6.78382 18.6411 6.73635 18.4297 6.82908L10.5167 10.2204C10.3833 10.2769 10.277 10.3843 10.2194 10.5177L6.82805 18.4307C6.73648 18.6433 6.78396 18.8897 6.94786 19.0536C7.05638 19.1599 7.20109 19.2175 7.34803 19.2175C7.42264 19.2175 7.49836 19.2017 7.57074 19.1723L15.4838 15.781C15.6171 15.7234 15.7234 15.6171 15.7811 15.4837L19.1724 7.57066C19.2628 7.35812 19.2154 7.11167 19.0526 6.94889ZM13.0002 14.1306C12.3773 14.1306 11.8698 13.623 11.8698 13.0001C11.8698 12.3772 12.3774 11.8697 13.0002 11.8697C13.6231 11.8697 14.1306 12.3773 14.1306 13.0001C14.1307 13.623 13.6231 14.1306 13.0002 14.1306Z"></path></svg>