<svg
  width="110"
  height="22"
  viewBox="0 0 225 38"
  fill="none"
  xmlns="http://www.w3.org/2000/svg"
>
  <path
    d="M13.64 1.24C14.04 1.24 14.3867 1.33333 14.68 1.52C14.9733 1.70667 15.12 2.01333 15.12 2.44V22.32C15.12 25.04 14.4533 27.0533 13.12 28.36C11.8133 29.64 9.90667 30.28 7.4 30.28C6.28 30.28 5.21333 30.1333 4.2 29.84C3.18667 29.5467 2.30667 29.1467 1.56 28.64C1.24 28.4267 1.05333 28.1467 1 27.8C0.946667 27.4533 1.02667 27.1067 1.24 26.76C1.45333 26.44 1.70667 26.2267 2 26.12C2.29333 26.0133 2.62667 26.0667 3 26.28C3.64 26.68 4.30667 27 5 27.24C5.72 27.4533 6.50667 27.56 7.36 27.56C9.01333 27.56 10.2267 27.1067 11 26.2C11.8 25.2933 12.2 23.8267 12.2 21.8V2.44C12.2 2.01333 12.3467 1.70667 12.64 1.52C12.9333 1.33333 13.2667 1.24 13.64 1.24ZM34.55 8.64C37.43 8.64 39.71 9.48 41.39 11.16C43.07 12.84 43.91 15.3067 43.91 18.56V20.24C43.91 23.4933 43.07 25.96 41.39 27.64C39.71 29.32 37.43 30.16 34.55 30.16C31.6433 30.16 29.35 29.3333 27.67 27.68C25.99 26 25.15 23.52 25.15 20.24V18.56C25.15 15.28 25.99 12.8133 27.67 11.16C29.35 9.48 31.6433 8.64 34.55 8.64ZM34.55 11.2C32.47 11.2 30.8567 11.8 29.71 13C28.59 14.2 28.03 16.1067 28.03 18.72V20.08C28.03 22.6933 28.59 24.6 29.71 25.8C30.8567 27 32.47 27.6 34.55 27.6C36.6033 27.6 38.19 27 39.31 25.8C40.4567 24.6 41.03 22.6933 41.03 20.08V18.72C41.03 16.1067 40.4567 14.2 39.31 13C38.19 11.8 36.6033 11.2 34.55 11.2ZM68.7447 9.04C69.118 9.14666 69.3847 9.34667 69.5447 9.64C69.7314 9.93333 69.758 10.28 69.6247 10.68L59.2247 37.16C59.0914 37.5333 58.8514 37.76 58.5047 37.84C58.158 37.92 57.798 37.8933 57.4247 37.76C57.078 37.6267 56.8247 37.4133 56.6647 37.12C56.5047 36.8533 56.4914 36.5333 56.6247 36.16L59.2647 29.72L51.6647 10.76C51.5047 10.3333 51.518 9.97333 51.7047 9.68C51.918 9.38667 52.198 9.17333 52.5447 9.04C52.918 8.90666 53.278 8.88 53.6247 8.96C53.998 9.04 54.2514 9.29333 54.3847 9.72L60.7047 26.4H60.7447L66.9847 9.76C67.118 9.33333 67.358 9.08 67.7047 9C68.0514 8.89333 68.398 8.90666 68.7447 9.04ZM89.0088 0.96C90.7954 0.96 92.3554 1.16 93.6888 1.56C95.0221 1.93333 96.1954 2.44 97.2088 3.08C97.5554 3.32 97.7421 3.61333 97.7688 3.96C97.8221 4.30667 97.7421 4.65333 97.5288 5C97.3154 5.29333 97.0488 5.49333 96.7288 5.6C96.4354 5.68 96.1154 5.61333 95.7688 5.4C94.8354 4.81333 93.8488 4.38667 92.8088 4.12C91.7688 3.82667 90.4754 3.68 88.9288 3.68C83.3021 3.68 80.4888 7.4 80.4888 14.84V16.4C80.4888 20.08 81.1688 22.8533 82.5288 24.72C83.9154 26.5867 86.0754 27.52 89.0088 27.52C90.6088 27.52 92.0088 27.3333 93.2088 26.96C94.4354 26.56 95.5421 25.9733 96.5288 25.2C96.8221 24.9867 97.1421 24.9067 97.4888 24.96C97.8354 25.0133 98.1288 25.2 98.3688 25.52C98.6354 25.8667 98.7421 26.2267 98.6888 26.6C98.6621 26.9733 98.4621 27.2933 98.0888 27.56C96.9954 28.4133 95.7021 29.08 94.2088 29.56C92.7154 30.04 90.9688 30.28 88.9688 30.28C85.1554 30.28 82.2888 29.1467 80.3688 26.88C78.4754 24.5867 77.5288 21.2 77.5288 16.72V14.52C77.5288 10.04 78.4888 6.66667 80.4088 4.4C82.3288 2.10667 85.1954 0.96 89.0088 0.96ZM116.159 8.64C119.039 8.64 121.319 9.48 122.999 11.16C124.679 12.84 125.519 15.3067 125.519 18.56V20.24C125.519 23.4933 124.679 25.96 122.999 27.64C121.319 29.32 119.039 30.16 116.159 30.16C113.253 30.16 110.959 29.3333 109.279 27.68C107.599 26 106.759 23.52 106.759 20.24V18.56C106.759 15.28 107.599 12.8133 109.279 11.16C110.959 9.48 113.253 8.64 116.159 8.64ZM116.159 11.2C114.079 11.2 112.466 11.8 111.319 13C110.199 14.2 109.639 16.1067 109.639 18.72V20.08C109.639 22.6933 110.199 24.6 111.319 25.8C112.466 27 114.079 27.6 116.159 27.6C118.213 27.6 119.799 27 120.919 25.8C122.066 24.6 122.639 22.6933 122.639 20.08V18.72C122.639 16.1067 122.066 14.2 120.919 13C119.799 11.8 118.213 11.2 116.159 11.2ZM136.634 8.92C137.007 8.92 137.327 9.01333 137.594 9.2C137.887 9.38667 138.034 9.69333 138.034 10.12V22.04C138.034 23.96 138.461 25.3733 139.314 26.28C140.167 27.16 141.447 27.6 143.154 27.6C144.114 27.6 144.981 27.44 145.754 27.12C146.527 26.7733 147.181 26.3467 147.714 25.84C148.247 25.3333 148.647 24.7733 148.914 24.16C149.207 23.52 149.354 22.8933 149.354 22.28V10.12C149.354 9.69333 149.501 9.38667 149.794 9.2C150.087 9.01333 150.421 8.92 150.794 8.92C151.167 8.92 151.501 9.01333 151.794 9.2C152.087 9.38667 152.234 9.69333 152.234 10.12V28.84C152.234 29.24 152.087 29.5333 151.794 29.72C151.527 29.9067 151.207 30 150.834 30C150.461 30 150.127 29.9067 149.834 29.72C149.567 29.5333 149.434 29.24 149.434 28.84V26.72H149.394C149.181 27.12 148.861 27.5333 148.434 27.96C148.034 28.36 147.541 28.7333 146.954 29.08C146.367 29.4 145.714 29.6667 144.994 29.88C144.274 30.0667 143.514 30.16 142.714 30.16C140.207 30.16 138.314 29.5067 137.034 28.2C135.781 26.8933 135.154 25.0667 135.154 22.72V10.12C135.154 9.69333 135.301 9.38667 135.594 9.2C135.914 9.01333 136.261 8.92 136.634 8.92ZM172.063 8.64C172.97 8.64 173.743 8.76 174.383 9C175.023 9.26666 175.236 9.78667 175.023 10.56C174.81 11.4667 174.316 11.84 173.543 11.68C173.25 11.6267 172.93 11.5733 172.583 11.52C172.236 11.44 171.876 11.4 171.503 11.4C170.65 11.4 169.876 11.5733 169.183 11.92C168.516 12.2667 167.943 12.7467 167.463 13.36C167.01 13.9733 166.663 14.7067 166.423 15.56C166.183 16.3867 166.063 17.2933 166.063 18.28V28.8C166.063 29.2267 165.916 29.5333 165.623 29.72C165.33 29.9067 164.996 30 164.623 30C164.25 30 163.916 29.9067 163.623 29.72C163.33 29.5333 163.183 29.2267 163.183 28.8V10.08C163.183 9.68 163.316 9.38667 163.583 9.2C163.876 9.01333 164.21 8.92 164.583 8.92C164.956 8.92 165.276 9.01333 165.543 9.2C165.836 9.38667 165.983 9.68 165.983 10.08V12.88H166.023C166.21 12.3733 166.476 11.8667 166.823 11.36C167.196 10.8533 167.636 10.4 168.143 10C168.65 9.6 169.223 9.28 169.863 9.04C170.53 8.77333 171.263 8.64 172.063 8.64ZM190.314 8.64C191.674 8.64 192.887 8.78667 193.954 9.08C195.047 9.34667 195.981 9.70667 196.754 10.16C197.101 10.3733 197.314 10.64 197.394 10.96C197.474 11.2533 197.421 11.5733 197.234 11.92C197.074 12.2133 196.861 12.4133 196.594 12.52C196.327 12.6267 196.021 12.5867 195.674 12.4C194.954 12 194.154 11.68 193.274 11.44C192.394 11.2 191.434 11.08 190.394 11.08C188.634 11.08 187.354 11.3867 186.554 12C185.754 12.5867 185.354 13.32 185.354 14.2V14.32C185.354 14.7733 185.434 15.1733 185.594 15.52C185.754 15.8667 186.034 16.1733 186.434 16.44C186.834 16.7067 187.367 16.96 188.034 17.2C188.727 17.4133 189.607 17.6133 190.674 17.8C192.141 18.0933 193.367 18.4133 194.354 18.76C195.341 19.08 196.127 19.48 196.714 19.96C197.301 20.44 197.714 21.0133 197.954 21.68C198.194 22.3467 198.314 23.1467 198.314 24.08V24.32C198.314 25.1467 198.127 25.92 197.754 26.64C197.381 27.36 196.847 27.9867 196.154 28.52C195.461 29.0267 194.607 29.4267 193.594 29.72C192.607 30.0133 191.487 30.16 190.234 30.16C188.687 30.16 187.261 29.96 185.954 29.56C184.647 29.16 183.567 28.6933 182.714 28.16C182.367 27.9467 182.167 27.68 182.114 27.36C182.061 27.0133 182.114 26.6933 182.274 26.4C182.487 26.0533 182.741 25.84 183.034 25.76C183.327 25.6533 183.661 25.7067 184.034 25.92C184.807 26.4 185.727 26.8133 186.794 27.16C187.887 27.5067 189.034 27.68 190.234 27.68C191.994 27.68 193.301 27.36 194.154 26.72C195.034 26.08 195.474 25.2667 195.474 24.28V24.16C195.474 23.6267 195.407 23.1733 195.274 22.8C195.141 22.4 194.861 22.0667 194.434 21.8C194.034 21.5067 193.447 21.2533 192.674 21.04C191.901 20.8 190.874 20.56 189.594 20.32C187.141 19.8667 185.341 19.2 184.194 18.32C183.074 17.4133 182.514 16.12 182.514 14.44V14.16C182.514 13.4133 182.674 12.7067 182.994 12.04C183.314 11.3733 183.794 10.7867 184.434 10.28C185.074 9.77333 185.874 9.37333 186.834 9.08C187.821 8.78667 188.981 8.64 190.314 8.64ZM215.706 8.64C218.452 8.64 220.612 9.46667 222.186 11.12C223.786 12.7467 224.586 15.0667 224.586 18.08V18.16C224.586 18.9333 224.412 19.4933 224.066 19.84C223.719 20.1867 223.119 20.36 222.266 20.36H209.506V20.56C209.506 22.96 210.066 24.7467 211.186 25.92C212.332 27.0933 213.946 27.68 216.026 27.68C217.279 27.68 218.372 27.56 219.306 27.32C220.266 27.0533 221.172 26.6667 222.026 26.16C222.372 25.9733 222.692 25.9333 222.986 26.04C223.279 26.12 223.506 26.32 223.666 26.64C223.826 26.96 223.866 27.28 223.786 27.6C223.732 27.8933 223.546 28.1467 223.226 28.36C222.319 28.8933 221.252 29.3333 220.026 29.68C218.826 30 217.439 30.16 215.866 30.16C213.012 30.16 210.759 29.3333 209.106 27.68C207.479 26.0267 206.666 23.5467 206.666 20.24V18.56C206.666 15.28 207.479 12.8133 209.106 11.16C210.759 9.48 212.959 8.64 215.706 8.64ZM215.706 11.08C213.786 11.08 212.266 11.68 211.146 12.88C210.052 14.0533 209.506 15.72 209.506 17.88V18.08H221.786V17.76C221.786 15.6267 221.252 13.9867 220.186 12.84C219.146 11.6667 217.652 11.08 215.706 11.08Z"
    fill="#387FEA"
  ></path>
</svg>